<svg xmlns="http://www.w3.org/2000/svg" xmlns:xlink="http://www.w3.org/1999/xlink" contentStyleType="text/css" height="713px" preserveAspectRatio="none" style="width:1411px;height:713px;background:#FFFFFF;" version="1.1" viewBox="0 0 1411 713" width="1411px" zoomAndPan="magnify"><defs/><g><!--cluster 07a66347e8fc79017306cdb9b87b9bcc--><g id="cluster_07a66347e8fc79017306cdb9b87b9bcc"><path d="M483.5,159.89 L525.5,159.89 A3.75,3.75 0 0 1 528,162.39 L535,182.1869 L808.5,182.1869 A2.5,2.5 0 0 1 811,184.6869 L811,703.95 A2.5,2.5 0 0 1 808.5,706.45 L483.5,706.45 A2.5,2.5 0 0 1 481,703.95 L481,162.39 A2.5,2.5 0 0 1 483.5,159.89 " fill="none" style="stroke:#000000;stroke-width:1.5;"/><line style="stroke:#000000;stroke-width:1.5;" x1="481" x2="535" y1="182.1869" y2="182.1869"/><text fill="#000000" font-family="sans-serif" font-size="14" font-weight="bold" lengthAdjust="spacing" textLength="41" x="485" y="174.8851">user/</text></g><!--cluster c136e732e44dc56c3684e399d082bba4--><g id="cluster_c136e732e44dc56c3684e399d082bba4"><path d="M8.5,159.89 L118.5,159.89 A3.75,3.75 0 0 1 121,162.39 L128,182.1869 L454.5,182.1869 A2.5,2.5 0 0 1 457,184.6869 L457,426.17 A2.5,2.5 0 0 1 454.5,428.67 L8.5,428.67 A2.5,2.5 0 0 1 6,426.17 L6,162.39 A2.5,2.5 0 0 1 8.5,159.89 " fill="none" style="stroke:#000000;stroke-width:1.5;"/><line style="stroke:#000000;stroke-width:1.5;" x1="6" x2="128" y1="182.1869" y2="182.1869"/><text fill="#000000" font-family="sans-serif" font-size="14" font-weight="bold" lengthAdjust="spacing" textLength="109" x="10" y="174.8851">authorization/</text></g><!--cluster 54f9f0f9336effa89817aed4c964b352--><g id="cluster_54f9f0f9336effa89817aed4c964b352"><path d="M837.5,6 L899.5,6 A3.75,3.75 0 0 1 902,8.5 L909,28.2969 L1162.5,28.2969 A2.5,2.5 0 0 1 1165,30.7969 L1165,565.06 A2.5,2.5 0 0 1 1162.5,567.56 L837.5,567.56 A2.5,2.5 0 0 1 835,565.06 L835,8.5 A2.5,2.5 0 0 1 837.5,6 " fill="none" style="stroke:#000000;stroke-width:1.5;"/><line style="stroke:#000000;stroke-width:1.5;" x1="835" x2="909" y1="28.2969" y2="28.2969"/><text fill="#000000" font-family="sans-serif" font-size="14" font-weight="bold" lengthAdjust="spacing" textLength="61" x="839" y="20.9951">project/</text></g><!--cluster 0f90d8edd8813e02dd7dfa7ea21c8bf7--><g id="cluster_0f90d8edd8813e02dd7dfa7ea21c8bf7"><path d="M1191.5,6 L1336.5,6 A3.75,3.75 0 0 1 1339,8.5 L1346,28.2969 L1401.5,28.2969 A2.5,2.5 0 0 1 1404,30.7969 L1404,133.39 A2.5,2.5 0 0 1 1401.5,135.89 L1191.5,135.89 A2.5,2.5 0 0 1 1189,133.39 L1189,8.5 A2.5,2.5 0 0 1 1191.5,6 " fill="none" style="stroke:#000000;stroke-width:1.5;"/><line style="stroke:#000000;stroke-width:1.5;" x1="1189" x2="1346" y1="28.2969" y2="28.2969"/><text fill="#000000" font-family="sans-serif" font-size="14" font-weight="bold" lengthAdjust="spacing" textLength="144" x="1193" y="20.9951">account_manager/</text></g><!--entity 5d0f87fedbfd15ea455df0d0f5dcfdd4--><g id="elem_5d0f87fedbfd15ea455df0d0f5dcfdd4"><rect fill="#F1F1F1" height="78.8906" rx="2.5" ry="2.5" style="stroke:#181818;stroke-width:0.5;" width="70" x="497" y="194.89"/><rect fill="#F1F1F1" height="10" style="stroke:#181818;stroke-width:0.5;" width="15" x="547" y="199.89"/><rect fill="#F1F1F1" height="2" style="stroke:#181818;stroke-width:0.5;" width="4" x="545" y="201.89"/><rect fill="#F1F1F1" height="2" style="stroke:#181818;stroke-width:0.5;" width="4" x="545" y="205.89"/><text fill="#000000" font-family="sans-serif" font-size="14" font-weight="bold" lengthAdjust="spacing" textLength="30" x="512" y="227.8851">urls</text><text fill="#000000" font-family="sans-serif" font-size="14" lengthAdjust="spacing" textLength="4" x="512" y="244.182">&#160;</text><text fill="#000000" font-family="sans-serif" font-size="14" lengthAdjust="spacing" textLength="4" x="512" y="260.4789">&#160;</text></g><!--entity 4c7d2e2a81d9c4cf39cf86fb174ae1ac--><g id="elem_4c7d2e2a81d9c4cf39cf86fb174ae1ac"><rect fill="#F1F1F1" height="78.8906" rx="2.5" ry="2.5" style="stroke:#181818;stroke-width:0.5;" width="86" x="506" y="333.78"/><rect fill="#F1F1F1" height="10" style="stroke:#181818;stroke-width:0.5;" width="15" x="572" y="338.78"/><rect fill="#F1F1F1" height="2" style="stroke:#181818;stroke-width:0.5;" width="4" x="570" y="340.78"/><rect fill="#F1F1F1" height="2" style="stroke:#181818;stroke-width:0.5;" width="4" x="570" y="344.78"/><text fill="#000000" font-family="sans-serif" font-size="14" font-weight="bold" lengthAdjust="spacing" textLength="46" x="521" y="366.7751">views</text><text fill="#000000" font-family="sans-serif" font-size="14" lengthAdjust="spacing" textLength="4" x="521" y="383.072">&#160;</text><text fill="#000000" font-family="sans-serif" font-size="14" lengthAdjust="spacing" textLength="4" x="521" y="399.3689">&#160;</text></g><!--entity 3fbbd200614e8a9261c07cf01a41ab1b--><g id="elem_3fbbd200614e8a9261c07cf01a41ab1b"><rect fill="#F1F1F1" height="78.8906" rx="2.5" ry="2.5" style="stroke:#181818;stroke-width:0.5;" width="122" x="497" y="472.67"/><rect fill="#F1F1F1" height="10" style="stroke:#181818;stroke-width:0.5;" width="15" x="599" y="477.67"/><rect fill="#F1F1F1" height="2" style="stroke:#181818;stroke-width:0.5;" width="4" x="597" y="479.67"/><rect fill="#F1F1F1" height="2" style="stroke:#181818;stroke-width:0.5;" width="4" x="597" y="483.67"/><text fill="#000000" font-family="sans-serif" font-size="14" font-weight="bold" lengthAdjust="spacing" textLength="82" x="512" y="505.6651">serializers</text><text fill="#000000" font-family="sans-serif" font-size="14" lengthAdjust="spacing" textLength="4" x="512" y="521.962">&#160;</text><text fill="#000000" font-family="sans-serif" font-size="14" lengthAdjust="spacing" textLength="4" x="512" y="538.2589">&#160;</text></g><!--entity d63e1cae6625947fbecc30149b24495d--><g id="elem_d63e1cae6625947fbecc30149b24495d"><rect fill="#F1F1F1" height="78.8906" rx="2.5" ry="2.5" style="stroke:#181818;stroke-width:0.5;" width="80" x="602" y="194.89"/><rect fill="#F1F1F1" height="10" style="stroke:#181818;stroke-width:0.5;" width="15" x="662" y="199.89"/><rect fill="#F1F1F1" height="2" style="stroke:#181818;stroke-width:0.5;" width="4" x="660" y="201.89"/><rect fill="#F1F1F1" height="2" style="stroke:#181818;stroke-width:0.5;" width="4" x="660" y="205.89"/><text fill="#000000" font-family="sans-serif" font-size="14" font-weight="bold" lengthAdjust="spacing" textLength="40" x="617" y="227.8851">tests</text><text fill="#000000" font-family="sans-serif" font-size="14" lengthAdjust="spacing" textLength="4" x="617" y="244.182">&#160;</text><text fill="#000000" font-family="sans-serif" font-size="14" lengthAdjust="spacing" textLength="4" x="617" y="260.4789">&#160;</text></g><!--entity b6e90d70f1a984d180a68f09e46a9693--><g id="elem_b6e90d70f1a984d180a68f09e46a9693"><rect fill="#F1F1F1" height="78.8906" rx="2.5" ry="2.5" style="stroke:#181818;stroke-width:0.5;" width="78" x="717" y="194.89"/><rect fill="#F1F1F1" height="10" style="stroke:#181818;stroke-width:0.5;" width="15" x="775" y="199.89"/><rect fill="#F1F1F1" height="2" style="stroke:#181818;stroke-width:0.5;" width="4" x="773" y="201.89"/><rect fill="#F1F1F1" height="2" style="stroke:#181818;stroke-width:0.5;" width="4" x="773" y="205.89"/><text fill="#000000" font-family="sans-serif" font-size="14" font-weight="bold" lengthAdjust="spacing" textLength="38" x="732" y="227.8851">apps</text><text fill="#000000" font-family="sans-serif" font-size="14" lengthAdjust="spacing" textLength="4" x="732" y="244.182">&#160;</text><text fill="#000000" font-family="sans-serif" font-size="14" lengthAdjust="spacing" textLength="4" x="732" y="260.4789">&#160;</text></g><!--entity 32568dac62673b4cac09faee81f674c0--><g id="elem_32568dac62673b4cac09faee81f674c0"><rect fill="#F1F1F1" height="78.8906" rx="2.5" ry="2.5" style="stroke:#181818;stroke-width:0.5;" width="97" x="645.5" y="611.56"/><rect fill="#F1F1F1" height="10" style="stroke:#181818;stroke-width:0.5;" width="15" x="722.5" y="616.56"/><rect fill="#F1F1F1" height="2" style="stroke:#181818;stroke-width:0.5;" width="4" x="720.5" y="618.56"/><rect fill="#F1F1F1" height="2" style="stroke:#181818;stroke-width:0.5;" width="4" x="720.5" y="622.56"/><text fill="#000000" font-family="sans-serif" font-size="14" font-weight="bold" lengthAdjust="spacing" textLength="57" x="660.5" y="644.5551">models</text><text fill="#000000" font-family="sans-serif" font-size="14" lengthAdjust="spacing" textLength="4" x="660.5" y="660.852">&#160;</text><text fill="#000000" font-family="sans-serif" font-size="14" lengthAdjust="spacing" textLength="4" x="660.5" y="677.1489">&#160;</text></g><!--entity 3e63c5fd633462b706759342b7df9072--><g id="elem_3e63c5fd633462b706759342b7df9072"><rect fill="#F1F1F1" height="78.8906" rx="2.5" ry="2.5" style="stroke:#181818;stroke-width:0.5;" width="87" x="690.5" y="472.67"/><rect fill="#F1F1F1" height="10" style="stroke:#181818;stroke-width:0.5;" width="15" x="757.5" y="477.67"/><rect fill="#F1F1F1" height="2" style="stroke:#181818;stroke-width:0.5;" width="4" x="755.5" y="479.67"/><rect fill="#F1F1F1" height="2" style="stroke:#181818;stroke-width:0.5;" width="4" x="755.5" y="483.67"/><text fill="#000000" font-family="sans-serif" font-size="14" font-weight="bold" lengthAdjust="spacing" textLength="47" x="705.5" y="505.6651">admin</text><text fill="#000000" font-family="sans-serif" font-size="14" lengthAdjust="spacing" textLength="4" x="705.5" y="521.962">&#160;</text><text fill="#000000" font-family="sans-serif" font-size="14" lengthAdjust="spacing" textLength="4" x="705.5" y="538.2589">&#160;</text></g><!--entity 0d589910c26c9855955297e048e68e90--><g id="elem_0d589910c26c9855955297e048e68e90"><rect fill="#F1F1F1" height="78.8906" rx="2.5" ry="2.5" style="stroke:#181818;stroke-width:0.5;" width="70" x="371" y="194.89"/><rect fill="#F1F1F1" height="10" style="stroke:#181818;stroke-width:0.5;" width="15" x="421" y="199.89"/><rect fill="#F1F1F1" height="2" style="stroke:#181818;stroke-width:0.5;" width="4" x="419" y="201.89"/><rect fill="#F1F1F1" height="2" style="stroke:#181818;stroke-width:0.5;" width="4" x="419" y="205.89"/><text fill="#000000" font-family="sans-serif" font-size="14" font-weight="bold" lengthAdjust="spacing" textLength="30" x="386" y="227.8851">urls</text><text fill="#000000" font-family="sans-serif" font-size="14" lengthAdjust="spacing" textLength="4" x="386" y="244.182">&#160;</text><text fill="#000000" font-family="sans-serif" font-size="14" lengthAdjust="spacing" textLength="4" x="386" y="260.4789">&#160;</text></g><!--entity ba45d34e2d852ba339d9e60bcf2faaec--><g id="elem_ba45d34e2d852ba339d9e60bcf2faaec"><rect fill="#F1F1F1" height="78.8906" rx="2.5" ry="2.5" style="stroke:#181818;stroke-width:0.5;" width="86" x="22" y="194.89"/><rect fill="#F1F1F1" height="10" style="stroke:#181818;stroke-width:0.5;" width="15" x="88" y="199.89"/><rect fill="#F1F1F1" height="2" style="stroke:#181818;stroke-width:0.5;" width="4" x="86" y="201.89"/><rect fill="#F1F1F1" height="2" style="stroke:#181818;stroke-width:0.5;" width="4" x="86" y="205.89"/><text fill="#000000" font-family="sans-serif" font-size="14" font-weight="bold" lengthAdjust="spacing" textLength="46" x="37" y="227.8851">views</text><text fill="#000000" font-family="sans-serif" font-size="14" lengthAdjust="spacing" textLength="4" x="37" y="244.182">&#160;</text><text fill="#000000" font-family="sans-serif" font-size="14" lengthAdjust="spacing" textLength="4" x="37" y="260.4789">&#160;</text></g><!--entity 4231d9c810255f5d77bedeaf0492b043--><g id="elem_4231d9c810255f5d77bedeaf0492b043"><rect fill="#F1F1F1" height="78.8906" rx="2.5" ry="2.5" style="stroke:#181818;stroke-width:0.5;" width="80" x="143" y="194.89"/><rect fill="#F1F1F1" height="10" style="stroke:#181818;stroke-width:0.5;" width="15" x="203" y="199.89"/><rect fill="#F1F1F1" height="2" style="stroke:#181818;stroke-width:0.5;" width="4" x="201" y="201.89"/><rect fill="#F1F1F1" height="2" style="stroke:#181818;stroke-width:0.5;" width="4" x="201" y="205.89"/><text fill="#000000" font-family="sans-serif" font-size="14" font-weight="bold" lengthAdjust="spacing" textLength="40" x="158" y="227.8851">tests</text><text fill="#000000" font-family="sans-serif" font-size="14" lengthAdjust="spacing" textLength="4" x="158" y="244.182">&#160;</text><text fill="#000000" font-family="sans-serif" font-size="14" lengthAdjust="spacing" textLength="4" x="158" y="260.4789">&#160;</text></g><!--entity 24c8a954f11a71f80565577abbe3911b--><g id="elem_24c8a954f11a71f80565577abbe3911b"><rect fill="#F1F1F1" height="78.8906" rx="2.5" ry="2.5" style="stroke:#181818;stroke-width:0.5;" width="78" x="258" y="194.89"/><rect fill="#F1F1F1" height="10" style="stroke:#181818;stroke-width:0.5;" width="15" x="316" y="199.89"/><rect fill="#F1F1F1" height="2" style="stroke:#181818;stroke-width:0.5;" width="4" x="314" y="201.89"/><rect fill="#F1F1F1" height="2" style="stroke:#181818;stroke-width:0.5;" width="4" x="314" y="205.89"/><text fill="#000000" font-family="sans-serif" font-size="14" font-weight="bold" lengthAdjust="spacing" textLength="38" x="273" y="227.8851">apps</text><text fill="#000000" font-family="sans-serif" font-size="14" lengthAdjust="spacing" textLength="4" x="273" y="244.182">&#160;</text><text fill="#000000" font-family="sans-serif" font-size="14" lengthAdjust="spacing" textLength="4" x="273" y="260.4789">&#160;</text></g><!--entity c4041bf944c8daab3651761f264a7524--><g id="elem_c4041bf944c8daab3651761f264a7524"><rect fill="#F1F1F1" height="78.8906" rx="2.5" ry="2.5" style="stroke:#181818;stroke-width:0.5;" width="97" x="21.5" y="333.78"/><rect fill="#F1F1F1" height="10" style="stroke:#181818;stroke-width:0.5;" width="15" x="98.5" y="338.78"/><rect fill="#F1F1F1" height="2" style="stroke:#181818;stroke-width:0.5;" width="4" x="96.5" y="340.78"/><rect fill="#F1F1F1" height="2" style="stroke:#181818;stroke-width:0.5;" width="4" x="96.5" y="344.78"/><text fill="#000000" font-family="sans-serif" font-size="14" font-weight="bold" lengthAdjust="spacing" textLength="57" x="36.5" y="366.7751">models</text><text fill="#000000" font-family="sans-serif" font-size="14" lengthAdjust="spacing" textLength="4" x="36.5" y="383.072">&#160;</text><text fill="#000000" font-family="sans-serif" font-size="14" lengthAdjust="spacing" textLength="4" x="36.5" y="399.3689">&#160;</text></g><!--entity bb360c27e9e679675a61257bf23f4855--><g id="elem_bb360c27e9e679675a61257bf23f4855"><rect fill="#F1F1F1" height="78.8906" rx="2.5" ry="2.5" style="stroke:#181818;stroke-width:0.5;" width="87" x="153.5" y="333.78"/><rect fill="#F1F1F1" height="10" style="stroke:#181818;stroke-width:0.5;" width="15" x="220.5" y="338.78"/><rect fill="#F1F1F1" height="2" style="stroke:#181818;stroke-width:0.5;" width="4" x="218.5" y="340.78"/><rect fill="#F1F1F1" height="2" style="stroke:#181818;stroke-width:0.5;" width="4" x="218.5" y="344.78"/><text fill="#000000" font-family="sans-serif" font-size="14" font-weight="bold" lengthAdjust="spacing" textLength="47" x="168.5" y="366.7751">admin</text><text fill="#000000" font-family="sans-serif" font-size="14" lengthAdjust="spacing" textLength="4" x="168.5" y="383.072">&#160;</text><text fill="#000000" font-family="sans-serif" font-size="14" lengthAdjust="spacing" textLength="4" x="168.5" y="399.3689">&#160;</text></g><!--entity 41fe3ce3b6d1a06e76083c50fcc42cbc--><g id="elem_41fe3ce3b6d1a06e76083c50fcc42cbc"><rect fill="#F1F1F1" height="78.8906" rx="2.5" ry="2.5" style="stroke:#181818;stroke-width:0.5;" width="70" x="851" y="41"/><rect fill="#F1F1F1" height="10" style="stroke:#181818;stroke-width:0.5;" width="15" x="901" y="46"/><rect fill="#F1F1F1" height="2" style="stroke:#181818;stroke-width:0.5;" width="4" x="899" y="48"/><rect fill="#F1F1F1" height="2" style="stroke:#181818;stroke-width:0.5;" width="4" x="899" y="52"/><text fill="#000000" font-family="sans-serif" font-size="14" font-weight="bold" lengthAdjust="spacing" textLength="30" x="866" y="73.9951">urls</text><text fill="#000000" font-family="sans-serif" font-size="14" lengthAdjust="spacing" textLength="4" x="866" y="90.292">&#160;</text><text fill="#000000" font-family="sans-serif" font-size="14" lengthAdjust="spacing" textLength="4" x="866" y="106.5889">&#160;</text></g><!--entity 252a63edcd1af4b39cf20df8a2ce580a--><g id="elem_252a63edcd1af4b39cf20df8a2ce580a"><rect fill="#F1F1F1" height="78.8906" rx="2.5" ry="2.5" style="stroke:#181818;stroke-width:0.5;" width="86" x="869" y="194.89"/><rect fill="#F1F1F1" height="10" style="stroke:#181818;stroke-width:0.5;" width="15" x="935" y="199.89"/><rect fill="#F1F1F1" height="2" style="stroke:#181818;stroke-width:0.5;" width="4" x="933" y="201.89"/><rect fill="#F1F1F1" height="2" style="stroke:#181818;stroke-width:0.5;" width="4" x="933" y="205.89"/><text fill="#000000" font-family="sans-serif" font-size="14" font-weight="bold" lengthAdjust="spacing" textLength="46" x="884" y="227.8851">views</text><text fill="#000000" font-family="sans-serif" font-size="14" lengthAdjust="spacing" textLength="4" x="884" y="244.182">&#160;</text><text fill="#000000" font-family="sans-serif" font-size="14" lengthAdjust="spacing" textLength="4" x="884" y="260.4789">&#160;</text></g><!--entity 50362d9163857ae17af183abfdcc2228--><g id="elem_50362d9163857ae17af183abfdcc2228"><rect fill="#F1F1F1" height="78.8906" rx="2.5" ry="2.5" style="stroke:#181818;stroke-width:0.5;" width="122" x="851" y="333.78"/><rect fill="#F1F1F1" height="10" style="stroke:#181818;stroke-width:0.5;" width="15" x="953" y="338.78"/><rect fill="#F1F1F1" height="2" style="stroke:#181818;stroke-width:0.5;" width="4" x="951" y="340.78"/><rect fill="#F1F1F1" height="2" style="stroke:#181818;stroke-width:0.5;" width="4" x="951" y="344.78"/><text fill="#000000" font-family="sans-serif" font-size="14" font-weight="bold" lengthAdjust="spacing" textLength="82" x="866" y="366.7751">serializers</text><text fill="#000000" font-family="sans-serif" font-size="14" lengthAdjust="spacing" textLength="4" x="866" y="383.072">&#160;</text><text fill="#000000" font-family="sans-serif" font-size="14" lengthAdjust="spacing" textLength="4" x="866" y="399.3689">&#160;</text></g><!--entity 35a4b53e701e18ee69b00dc799d0cc5a--><g id="elem_35a4b53e701e18ee69b00dc799d0cc5a"><rect fill="#F1F1F1" height="78.8906" rx="2.5" ry="2.5" style="stroke:#181818;stroke-width:0.5;" width="80" x="956" y="41"/><rect fill="#F1F1F1" height="10" style="stroke:#181818;stroke-width:0.5;" width="15" x="1016" y="46"/><rect fill="#F1F1F1" height="2" style="stroke:#181818;stroke-width:0.5;" width="4" x="1014" y="48"/><rect fill="#F1F1F1" height="2" style="stroke:#181818;stroke-width:0.5;" width="4" x="1014" y="52"/><text fill="#000000" font-family="sans-serif" font-size="14" font-weight="bold" lengthAdjust="spacing" textLength="40" x="971" y="73.9951">tests</text><text fill="#000000" font-family="sans-serif" font-size="14" lengthAdjust="spacing" textLength="4" x="971" y="90.292">&#160;</text><text fill="#000000" font-family="sans-serif" font-size="14" lengthAdjust="spacing" textLength="4" x="971" y="106.5889">&#160;</text></g><!--entity bccdf7f2c9efca94ae87746ddee16cac--><g id="elem_bccdf7f2c9efca94ae87746ddee16cac"><rect fill="#F1F1F1" height="78.8906" rx="2.5" ry="2.5" style="stroke:#181818;stroke-width:0.5;" width="78" x="1071" y="41"/><rect fill="#F1F1F1" height="10" style="stroke:#181818;stroke-width:0.5;" width="15" x="1129" y="46"/><rect fill="#F1F1F1" height="2" style="stroke:#181818;stroke-width:0.5;" width="4" x="1127" y="48"/><rect fill="#F1F1F1" height="2" style="stroke:#181818;stroke-width:0.5;" width="4" x="1127" y="52"/><text fill="#000000" font-family="sans-serif" font-size="14" font-weight="bold" lengthAdjust="spacing" textLength="38" x="1086" y="73.9951">apps</text><text fill="#000000" font-family="sans-serif" font-size="14" lengthAdjust="spacing" textLength="4" x="1086" y="90.292">&#160;</text><text fill="#000000" font-family="sans-serif" font-size="14" lengthAdjust="spacing" textLength="4" x="1086" y="106.5889">&#160;</text></g><!--entity 72ac1786b5e3a4db0396003d155060cb--><g id="elem_72ac1786b5e3a4db0396003d155060cb"><rect fill="#F1F1F1" height="78.8906" rx="2.5" ry="2.5" style="stroke:#181818;stroke-width:0.5;" width="97" x="911.5" y="472.67"/><rect fill="#F1F1F1" height="10" style="stroke:#181818;stroke-width:0.5;" width="15" x="988.5" y="477.67"/><rect fill="#F1F1F1" height="2" style="stroke:#181818;stroke-width:0.5;" width="4" x="986.5" y="479.67"/><rect fill="#F1F1F1" height="2" style="stroke:#181818;stroke-width:0.5;" width="4" x="986.5" y="483.67"/><text fill="#000000" font-family="sans-serif" font-size="14" font-weight="bold" lengthAdjust="spacing" textLength="57" x="926.5" y="505.6651">models</text><text fill="#000000" font-family="sans-serif" font-size="14" lengthAdjust="spacing" textLength="4" x="926.5" y="521.962">&#160;</text><text fill="#000000" font-family="sans-serif" font-size="14" lengthAdjust="spacing" textLength="4" x="926.5" y="538.2589">&#160;</text></g><!--entity b11656b590328ab3213545c171359188--><g id="elem_b11656b590328ab3213545c171359188"><rect fill="#F1F1F1" height="78.8906" rx="2.5" ry="2.5" style="stroke:#181818;stroke-width:0.5;" width="87" x="1044.5" y="333.78"/><rect fill="#F1F1F1" height="10" style="stroke:#181818;stroke-width:0.5;" width="15" x="1111.5" y="338.78"/><rect fill="#F1F1F1" height="2" style="stroke:#181818;stroke-width:0.5;" width="4" x="1109.5" y="340.78"/><rect fill="#F1F1F1" height="2" style="stroke:#181818;stroke-width:0.5;" width="4" x="1109.5" y="344.78"/><text fill="#000000" font-family="sans-serif" font-size="14" font-weight="bold" lengthAdjust="spacing" textLength="47" x="1059.5" y="366.7751">admin</text><text fill="#000000" font-family="sans-serif" font-size="14" lengthAdjust="spacing" textLength="4" x="1059.5" y="383.072">&#160;</text><text fill="#000000" font-family="sans-serif" font-size="14" lengthAdjust="spacing" textLength="4" x="1059.5" y="399.3689">&#160;</text></g><!--entity 1f789aa04292956e30a7de0beb2410ab--><g id="elem_1f789aa04292956e30a7de0beb2410ab"><rect fill="#F1F1F1" height="78.8906" rx="2.5" ry="2.5" style="stroke:#181818;stroke-width:0.5;" width="70" x="1205" y="41"/><rect fill="#F1F1F1" height="10" style="stroke:#181818;stroke-width:0.5;" width="15" x="1255" y="46"/><rect fill="#F1F1F1" height="2" style="stroke:#181818;stroke-width:0.5;" width="4" x="1253" y="48"/><rect fill="#F1F1F1" height="2" style="stroke:#181818;stroke-width:0.5;" width="4" x="1253" y="52"/><text fill="#000000" font-family="sans-serif" font-size="14" font-weight="bold" lengthAdjust="spacing" textLength="30" x="1220" y="73.9951">urls</text><text fill="#000000" font-family="sans-serif" font-size="14" lengthAdjust="spacing" textLength="4" x="1220" y="90.292">&#160;</text><text fill="#000000" font-family="sans-serif" font-size="14" lengthAdjust="spacing" textLength="4" x="1220" y="106.5889">&#160;</text></g><!--entity 447d833f230c648cfde9e3eff991f2bf--><g id="elem_447d833f230c648cfde9e3eff991f2bf"><rect fill="#F1F1F1" height="78.8906" rx="2.5" ry="2.5" style="stroke:#181818;stroke-width:0.5;" width="78" x="1310" y="41"/><rect fill="#F1F1F1" height="10" style="stroke:#181818;stroke-width:0.5;" width="15" x="1368" y="46"/><rect fill="#F1F1F1" height="2" style="stroke:#181818;stroke-width:0.5;" width="4" x="1366" y="48"/><rect fill="#F1F1F1" height="2" style="stroke:#181818;stroke-width:0.5;" width="4" x="1366" y="52"/><text fill="#000000" font-family="sans-serif" font-size="14" font-weight="bold" lengthAdjust="spacing" textLength="38" x="1325" y="73.9951">docs</text><text fill="#000000" font-family="sans-serif" font-size="14" lengthAdjust="spacing" textLength="4" x="1325" y="90.292">&#160;</text><text fill="#000000" font-family="sans-serif" font-size="14" lengthAdjust="spacing" textLength="4" x="1325" y="106.5889">&#160;</text></g><!--link 5d0f87fedbfd15ea455df0d0f5dcfdd4 to 4c7d2e2a81d9c4cf39cf86fb174ae1ac--><g id="link_5d0f87fedbfd15ea455df0d0f5dcfdd4_4c7d2e2a81d9c4cf39cf86fb174ae1ac"><path codeLine="120" d="M536.83,274.19 C539.14,292.85 541.1709,309.1757 543.4809,327.7857 " fill="none" id="5d0f87fedbfd15ea455df0d0f5dcfdd4-to-4c7d2e2a81d9c4cf39cf86fb174ae1ac" style="stroke:#181818;stroke-width:1.0;"/><polygon fill="#181818" points="544.22,333.74,547.0809,324.3158,543.6041,328.7781,539.1418,325.3013,544.22,333.74" style="stroke:#181818;stroke-width:1.0;"/></g><!--link 4c7d2e2a81d9c4cf39cf86fb174ae1ac to 32568dac62673b4cac09faee81f674c0--><g id="link_4c7d2e2a81d9c4cf39cf86fb174ae1ac_32568dac62673b4cac09faee81f674c0"><path codeLine="121" d="M589.9,412.98 C606.04,430.04 623.65,451.09 636,472.67 C649.64,496.49 669.004,560.7374 681.644,605.3374 " fill="none" id="4c7d2e2a81d9c4cf39cf86fb174ae1ac-to-32568dac62673b4cac09faee81f674c0" style="stroke:#181818;stroke-width:1.0;"/><polygon fill="#181818" points="683.28,611.11,684.6744,601.3604,681.9167,606.2995,676.9775,603.5417,683.28,611.11" style="stroke:#181818;stroke-width:1.0;"/></g><!--link 4c7d2e2a81d9c4cf39cf86fb174ae1ac to 3fbbd200614e8a9261c07cf01a41ab1b--><g id="link_4c7d2e2a81d9c4cf39cf86fb174ae1ac_3fbbd200614e8a9261c07cf01a41ab1b"><path codeLine="122" d="M551.55,413.08 C552.78,431.74 553.8575,448.0329 555.0775,466.6429 " fill="none" id="4c7d2e2a81d9c4cf39cf86fb174ae1ac-to-3fbbd200614e8a9261c07cf01a41ab1b" style="stroke:#181818;stroke-width:1.0;"/><polygon fill="#181818" points="555.47,472.63,558.8727,463.3876,555.1429,467.6407,550.8898,463.9109,555.47,472.63" style="stroke:#181818;stroke-width:1.0;"/></g><!--link 3fbbd200614e8a9261c07cf01a41ab1b to 32568dac62673b4cac09faee81f674c0--><g id="link_3fbbd200614e8a9261c07cf01a41ab1b_32568dac62673b4cac09faee81f674c0"><path codeLine="123" d="M596.61,551.98 C615.14,570.63 633.0511,588.6537 651.5411,607.2637 " fill="none" id="3fbbd200614e8a9261c07cf01a41ab1b-to-32568dac62673b4cac09faee81f674c0" style="stroke:#181818;stroke-width:1.0;"/><polygon fill="#181818" points="655.77,611.52,652.2642,602.3162,652.2459,607.973,646.5891,607.9548,655.77,611.52" style="stroke:#181818;stroke-width:1.0;"/></g><!--link 3e63c5fd633462b706759342b7df9072 to 32568dac62673b4cac09faee81f674c0--><g id="link_3e63c5fd633462b706759342b7df9072_32568dac62673b4cac09faee81f674c0"><path codeLine="124" d="M722.64,551.98 C717.19,570.63 712.3606,587.1502 706.9306,605.7602 " fill="none" id="3e63c5fd633462b706759342b7df9072-to-32568dac62673b4cac09faee81f674c0" style="stroke:#181818;stroke-width:1.0;"/><polygon fill="#181818" points="705.25,611.52,711.6108,604.0007,706.6505,606.7201,703.931,601.7599,705.25,611.52" style="stroke:#181818;stroke-width:1.0;"/></g><!--link 0d589910c26c9855955297e048e68e90 to 4c7d2e2a81d9c4cf39cf86fb174ae1ac--><g id="link_0d589910c26c9855955297e048e68e90_4c7d2e2a81d9c4cf39cf86fb174ae1ac"><path codeLine="125" d="M441.35,269.17 C461.69,288.65 483.0052,309.0516 504.1652,329.3016 " fill="none" id="0d589910c26c9855955297e048e68e90-to-4c7d2e2a81d9c4cf39cf86fb174ae1ac" style="stroke:#181818;stroke-width:1.0;"/><polygon fill="#181818" points="508.5,333.45,504.7634,324.3375,504.8876,329.993,499.2322,330.1173,508.5,333.45" style="stroke:#181818;stroke-width:1.0;"/></g><!--link 41fe3ce3b6d1a06e76083c50fcc42cbc to 252a63edcd1af4b39cf20df8a2ce580a--><g id="link_41fe3ce3b6d1a06e76083c50fcc42cbc_252a63edcd1af4b39cf20df8a2ce580a"><path codeLine="126" d="M892.63,120.16 C896.52,142.93 900.4284,165.7059 904.3284,188.5059 " fill="none" id="41fe3ce3b6d1a06e76083c50fcc42cbc-to-252a63edcd1af4b39cf20df8a2ce580a" style="stroke:#181818;stroke-width:1.0;"/><polygon fill="#181818" points="905.34,194.42,907.7653,184.8744,904.497,189.4916,899.8798,186.2233,905.34,194.42" style="stroke:#181818;stroke-width:1.0;"/></g><!--link 252a63edcd1af4b39cf20df8a2ce580a to 72ac1786b5e3a4db0396003d155060cb--><g id="link_252a63edcd1af4b39cf20df8a2ce580a_72ac1786b5e3a4db0396003d155060cb"><path codeLine="127" d="M952.72,274.17 C967.44,290.93 982.33,311.74 990,333.78 C1005.04,376.96 998.71,391.78 990,436.67 C987.69,448.57 985.7483,455.4212 981.1983,466.6212 " fill="none" id="252a63edcd1af4b39cf20df8a2ce580a-to-72ac1786b5e3a4db0396003d155060cb" style="stroke:#181818;stroke-width:1.0;"/><polygon fill="#181818" points="978.94,472.18,986.0333,465.3473,980.8219,467.5477,978.6215,462.3363,978.94,472.18" style="stroke:#181818;stroke-width:1.0;"/></g><!--link 252a63edcd1af4b39cf20df8a2ce580a to 50362d9163857ae17af183abfdcc2228--><g id="link_252a63edcd1af4b39cf20df8a2ce580a_50362d9163857ae17af183abfdcc2228"><path codeLine="128" d="M912,274.19 C912,292.85 912,309.13 912,327.74 " fill="none" id="252a63edcd1af4b39cf20df8a2ce580a-to-50362d9163857ae17af183abfdcc2228" style="stroke:#181818;stroke-width:1.0;"/><polygon fill="#181818" points="912,333.74,916,324.74,912,328.74,908,324.74,912,333.74" style="stroke:#181818;stroke-width:1.0;"/></g><!--link 50362d9163857ae17af183abfdcc2228 to 72ac1786b5e3a4db0396003d155060cb--><g id="link_50362d9163857ae17af183abfdcc2228_72ac1786b5e3a4db0396003d155060cb"><path codeLine="129" d="M925.63,413.08 C932.17,431.74 937.9934,448.3584 944.5234,466.9684 " fill="none" id="50362d9163857ae17af183abfdcc2228-to-72ac1786b5e3a4db0396003d155060cb" style="stroke:#181818;stroke-width:1.0;"/><polygon fill="#181818" points="946.51,472.63,947.3045,462.8132,944.8545,467.912,939.7558,465.462,946.51,472.63" style="stroke:#181818;stroke-width:1.0;"/></g><!--link 72ac1786b5e3a4db0396003d155060cb to 32568dac62673b4cac09faee81f674c0--><g id="link_72ac1786b5e3a4db0396003d155060cb_32568dac62673b4cac09faee81f674c0"><path codeLine="130" d="M911.21,538.22 C863.37,562.84 796.1552,597.435 748.2652,622.075 " fill="none" id="72ac1786b5e3a4db0396003d155060cb-to-32568dac62673b4cac09faee81f674c0" style="stroke:#181818;stroke-width:1.0;"/><polygon fill="#181818" points="742.93,624.82,752.7629,624.2593,747.376,622.5325,749.1028,617.1456,742.93,624.82" style="stroke:#181818;stroke-width:1.0;"/></g><!--link b11656b590328ab3213545c171359188 to 72ac1786b5e3a4db0396003d155060cb--><g id="link_b11656b590328ab3213545c171359188_72ac1786b5e3a4db0396003d155060cb"><path codeLine="131" d="M1051.66,413.08 C1034.22,431.74 1017.4765,449.6361 1000.0865,468.2461 " fill="none" id="b11656b590328ab3213545c171359188-to-72ac1786b5e3a4db0396003d155060cb" style="stroke:#181818;stroke-width:1.0;"/><polygon fill="#181818" points="995.99,472.63,1005.0574,468.7852,999.4038,468.9767,999.2122,463.3231,995.99,472.63" style="stroke:#181818;stroke-width:1.0;"/></g><!--SRC=[ZLNRRYCt37ttLmJx661Hag8ewQK_KXG5HL9RjuaT94wtsAB_NjP9By5cFNxnsCQSCnJFPVJkxlZvVl_x_l1fzw3sgtwAcm_FJ_7utOSRVRg1fYA5M_HbRG2s0c8-n-mjFynk_jZPyVxXU8Z3wQOwhDvM-5oEDPHhzGNvPtLRxdppm-xszldnxkdsThVR_VW_95jp2jAEFenjbM6hovhOM0FLpiZVzl7vQsXPSpe1279q7IHeq6m1AgDEd6TedcUlT_ilyVWrWKi9D0qHgeFRcc5M07bCOXxLpmIdU3fz3PqI0xp1GXsT7Jkez0KZM7J8A6UeFZoyCpLLwQuc9ArCDZKOIoCwBcbiS4RU7ptUMLO9ALPNpbrOQ3QGLaVX_EPhGAENf_hz_l0A_VC_PVNvzFFnSVz5J_lZuKLYmoBH2WMpMnKhqZdA60wTvbH-8p5uxMCW68cDNkkebKOBu1xISndVbZYPgXSEybvfQYd3HmXCMxHKuvB4JELlNtG4gZNDrDeC3rt0WoPmkQ0GiQKfAYz4RRWwLAcrDPqpZuYlxdXN8MDWd6jmChZgB5An2IuIrbQ9Boaqy-vSKOiyOHifZmfIRNDHMPnRkwJGm-Fnbx3JYpOv-5YmHac9rj8-EZODPnl2irHwemtZYc9HfZWgfAO2FOq2oup9fdrR6wgacGAt1AuaplGH-EfA5ZLDVK6R2aN81qhfDKVByHRseja0PaJKD-DNglAi9HfWO8-GCG4yooODQ5RrKlpCVBL5DcAPZgoAtXgBUmIAlRR6k-8sKiFMPTOeoZwX304esLeLKhbvKLn4gOaSKAYdBmXBvPfqUHtO-yNucHsV3wUVxlMGl__fs4ojzt3l7Ki0kMUGjOKIMf-hlH4PL-j35PW6ZIfHG9i7pCYsGj1veMEvUIybFGWctBEHqvubRPLvNZJN6Ub7U_ftxCq-_-WVlz_ixjrckPzfjXhnMfgDry5kytrntJIR9NmTpMQVNhdYhUYVQRPYljliWJFDLdYkfDbgZjrcjLmtpMRMhrDgC_PNJVCN]--></g></svg>