<svg xmlns="http://www.w3.org/2000/svg" xmlns:xlink="http://www.w3.org/1999/xlink" contentStyleType="text/css" height="619px" preserveAspectRatio="none" style="width:1069px;height:619px;background:#FFFFFF;" version="1.1" viewBox="0 0 1069 619" width="1069px" zoomAndPan="magnify"><defs/><g><!--cluster e8a48653851e28c69d0506508fb27fc5--><g id="cluster_e8a48653851e28c69d0506508fb27fc5"><polygon fill="none" points="16,16,26,6,422,6,422,501.48,412,511.48,16,511.48,16,16" style="stroke:#181818;stroke-width:1.0;"/><line style="stroke:#181818;stroke-width:1.0;" x1="412" x2="422" y1="16" y2="6"/><line style="stroke:#181818;stroke-width:1.0;" x1="16" x2="412" y1="16" y2="16"/><line style="stroke:#181818;stroke-width:1.0;" x1="412" x2="412" y1="16" y2="511.48"/><text fill="#000000" font-family="sans-serif" font-size="14" font-weight="bold" lengthAdjust="spacing" textLength="71" x="179.5" y="31.9951">Postgres</text></g><!--cluster d2a57dc1d883fd21fb9951699df71cc7--><g id="cluster_d2a57dc1d883fd21fb9951699df71cc7"><polygon fill="none" points="620,16,630,6,910,6,910,501.48,900,511.48,620,511.48,620,16" style="stroke:#181818;stroke-width:1.0;"/><line style="stroke:#181818;stroke-width:1.0;" x1="900" x2="910" y1="16" y2="6"/><line style="stroke:#181818;stroke-width:1.0;" x1="620" x2="900" y1="16" y2="16"/><line style="stroke:#181818;stroke-width:1.0;" x1="900" x2="900" y1="16" y2="511.48"/><text fill="#000000" font-family="sans-serif" font-size="14" font-weight="bold" lengthAdjust="spacing" textLength="31" x="745.5" y="31.9951">App</text></g><!--entity 54d85d43bc07fe7b60c628efddd8fd92--><g id="elem_54d85d43bc07fe7b60c628efddd8fd92"><rect fill="#F1F1F1" height="95.1875" rx="2.5" ry="2.5" style="stroke:#181818;stroke-width:0.5;" width="196" x="210" y="46"/><rect fill="#F1F1F1" height="10" style="stroke:#181818;stroke-width:0.5;" width="15" x="386" y="51"/><rect fill="#F1F1F1" height="2" style="stroke:#181818;stroke-width:0.5;" width="4" x="384" y="53"/><rect fill="#F1F1F1" height="2" style="stroke:#181818;stroke-width:0.5;" width="4" x="384" y="57"/><text fill="#000000" font-family="sans-serif" font-size="14" font-weight="bold" lengthAdjust="spacing" textLength="20" x="225" y="78.9951">db</text><text fill="#000000" font-family="sans-serif" font-size="14" lengthAdjust="spacing" textLength="4" x="225" y="95.292">&#160;</text><text fill="#000000" font-family="sans-serif" font-size="14" lengthAdjust="spacing" textLength="156" x="225" y="111.5889">image: postgres:latest</text><text fill="#000000" font-family="sans-serif" font-size="14" lengthAdjust="spacing" textLength="4" x="225" y="127.8857">&#160;</text></g><!--entity 9c41b0dc0d9393d8a4c1a8e0ff9f1547--><g id="elem_9c41b0dc0d9393d8a4c1a8e0ff9f1547"><ellipse cx="377" cy="231.19" fill="#F1F1F1" rx="8" ry="8" style="stroke:#181818;stroke-width:0.5;"/><text fill="#000000" font-family="sans-serif" font-size="14" lengthAdjust="spacing" textLength="36" x="359" y="261.1851">5432</text></g><!--entity be37e40b068362ad529067845ac94bd0--><g id="elem_be37e40b068362ad529067845ac94bd0"><rect fill="#F1F1F1" height="39.2969" rx="2.5" ry="2.5" style="stroke:#181818;stroke-width:0.5;" width="189" x="32.5" y="456.19"/><polygon fill="#F1F1F1" points="204.5,461.19,204.5,475.19,216.5,475.19,216.5,467.19,210.5,461.19,204.5,461.19" style="stroke:#181818;stroke-width:0.5;"/><line style="stroke:#181818;stroke-width:0.5;" x1="210.5" x2="210.5" y1="461.19" y2="467.19"/><line style="stroke:#181818;stroke-width:0.5;" x1="216.5" x2="210.5" y1="467.19" y2="467.19"/><text fill="#000000" font-family="sans-serif" font-size="14" lengthAdjust="spacing" textLength="159" x="42.5" y="482.1851">/var/lib/postgresql/data</text></g><!--entity e10d74d21315fb34ba2d26d0febc6a3b--><g id="elem_e10d74d21315fb34ba2d26d0febc6a3b"><rect fill="#F1F1F1" height="39.2969" rx="2.5" ry="2.5" style="stroke:#181818;stroke-width:0.5;" width="150" x="256" y="456.19"/><polygon fill="#F1F1F1" points="389,461.19,389,475.19,401,475.19,401,467.19,395,461.19,389,461.19" style="stroke:#181818;stroke-width:0.5;"/><line style="stroke:#181818;stroke-width:0.5;" x1="395" x2="395" y1="461.19" y2="467.19"/><line style="stroke:#181818;stroke-width:0.5;" x1="401" x2="395" y1="467.19" y2="467.19"/><text fill="#000000" font-family="sans-serif" font-size="14" lengthAdjust="spacing" textLength="120" x="266" y="482.1851">/var/log/database</text></g><!--entity 893aba7f849e8e7e9eba282605c4877b--><g id="elem_893aba7f849e8e7e9eba282605c4877b"><rect fill="#F1F1F1" height="95.1875" rx="2.5" ry="2.5" style="stroke:#181818;stroke-width:0.5;" width="258" x="636" y="46"/><rect fill="#F1F1F1" height="10" style="stroke:#181818;stroke-width:0.5;" width="15" x="874" y="51"/><rect fill="#F1F1F1" height="2" style="stroke:#181818;stroke-width:0.5;" width="4" x="872" y="53"/><rect fill="#F1F1F1" height="2" style="stroke:#181818;stroke-width:0.5;" width="4" x="872" y="57"/><text fill="#000000" font-family="sans-serif" font-size="14" font-weight="bold" lengthAdjust="spacing" textLength="29" x="651" y="78.9951">app</text><text fill="#000000" font-family="sans-serif" font-size="14" lengthAdjust="spacing" textLength="4" x="651" y="95.292">&#160;</text><text fill="#000000" font-family="sans-serif" font-size="14" lengthAdjust="spacing" textLength="218" x="651" y="111.5889">image: account_manager:latest</text><text fill="#000000" font-family="sans-serif" font-size="14" lengthAdjust="spacing" textLength="4" x="651" y="127.8857">&#160;</text></g><!--entity 3ef9b52d9eb49b7db9d6a3e84fef0d1c--><g id="elem_3ef9b52d9eb49b7db9d6a3e84fef0d1c"><ellipse cx="857" cy="231.19" fill="#F1F1F1" rx="8" ry="8" style="stroke:#181818;stroke-width:0.5;"/><text fill="#000000" font-family="sans-serif" font-size="14" lengthAdjust="spacing" textLength="36" x="839" y="261.1851">8000</text></g><!--entity 893adb7f1ae87ab2931fa12476da025c--><g id="elem_893adb7f1ae87ab2931fa12476da025c"><rect fill="#F1F1F1" height="39.2969" rx="2.5" ry="2.5" style="stroke:#181818;stroke-width:0.5;" width="75" x="649.5" y="456.19"/><polygon fill="#F1F1F1" points="707.5,461.19,707.5,475.19,719.5,475.19,719.5,467.19,713.5,461.19,707.5,461.19" style="stroke:#181818;stroke-width:0.5;"/><line style="stroke:#181818;stroke-width:0.5;" x1="713.5" x2="713.5" y1="461.19" y2="467.19"/><line style="stroke:#181818;stroke-width:0.5;" x1="719.5" x2="713.5" y1="467.19" y2="467.19"/><text fill="#000000" font-family="sans-serif" font-size="14" lengthAdjust="spacing" textLength="45" x="659.5" y="482.1851">/code/</text></g><!--entity 19891d9c6fb0928acfe714268b3e5be3--><g id="elem_19891d9c6fb0928acfe714268b3e5be3"><rect fill="#F1F1F1" height="39.2969" rx="2.5" ry="2.5" style="stroke:#181818;stroke-width:0.5;" width="112" x="760" y="456.19"/><polygon fill="#F1F1F1" points="855,461.19,855,475.19,867,475.19,867,467.19,861,461.19,855,461.19" style="stroke:#181818;stroke-width:0.5;"/><line style="stroke:#181818;stroke-width:0.5;" x1="861" x2="861" y1="461.19" y2="467.19"/><line style="stroke:#181818;stroke-width:0.5;" x1="867" x2="861" y1="467.19" y2="467.19"/><text fill="#000000" font-family="sans-serif" font-size="14" lengthAdjust="spacing" textLength="82" x="770" y="482.1851">/var/log/app</text></g><!--entity 66c3ee6bb03b94a4e0d7d152b17c38c7--><g id="elem_66c3ee6bb03b94a4e0d7d152b17c38c7"><ellipse cx="521" cy="366.19" fill="#F1F1F1" rx="8" ry="8" style="stroke:#181818;stroke-width:0.5;"/><text fill="#000000" font-family="sans-serif" font-size="14" lengthAdjust="spacing" textLength="150" x="446" y="396.1851">${POSTGRES_PORT}</text></g><!--entity b73579baee66d879810e7e05d474821f--><g id="elem_b73579baee66d879810e7e05d474821f"><ellipse cx="998" cy="366.19" fill="#F1F1F1" rx="8" ry="8" style="stroke:#181818;stroke-width:0.5;"/><text fill="#000000" font-family="sans-serif" font-size="14" lengthAdjust="spacing" textLength="128" x="934" y="396.1851">${DJANGO_PORT}</text></g><!--entity 9882ad60b8ffd8fcaf975b5c38b8d684--><g id="elem_9882ad60b8ffd8fcaf975b5c38b8d684"><rect fill="#F1F1F1" height="39.2969" rx="2.5" ry="2.5" style="stroke:#181818;stroke-width:0.5;" width="83" x="85.5" y="574.48"/><polygon fill="#F1F1F1" points="151.5,579.48,151.5,593.48,163.5,593.48,163.5,585.48,157.5,579.48,151.5,579.48" style="stroke:#181818;stroke-width:0.5;"/><line style="stroke:#181818;stroke-width:0.5;" x1="157.5" x2="157.5" y1="579.48" y2="585.48"/><line style="stroke:#181818;stroke-width:0.5;" x1="163.5" x2="157.5" y1="585.48" y2="585.48"/><text fill="#000000" font-family="sans-serif" font-size="14" lengthAdjust="spacing" textLength="53" x="95.5" y="600.4751">db-data</text></g><!--entity c46cf2d148fb50cc0f8e4ccbee11b22e--><g id="elem_c46cf2d148fb50cc0f8e4ccbee11b22e"><rect fill="#F1F1F1" height="39.2969" rx="2.5" ry="2.5" style="stroke:#181818;stroke-width:0.5;" width="82" x="290" y="574.48"/><polygon fill="#F1F1F1" points="355,579.48,355,593.48,367,593.48,367,585.48,361,579.48,355,579.48" style="stroke:#181818;stroke-width:0.5;"/><line style="stroke:#181818;stroke-width:0.5;" x1="361" x2="361" y1="579.48" y2="585.48"/><line style="stroke:#181818;stroke-width:0.5;" x1="367" x2="361" y1="585.48" y2="585.48"/><text fill="#000000" font-family="sans-serif" font-size="14" lengthAdjust="spacing" textLength="52" x="300" y="600.4751">db-logs</text></g><!--entity 4ee4e842a5b02b96710ef6f54e60eaf4--><g id="elem_4ee4e842a5b02b96710ef6f54e60eaf4"><rect fill="#F1F1F1" height="39.2969" rx="2.5" ry="2.5" style="stroke:#181818;stroke-width:0.5;" width="39" x="667.5" y="574.48"/><polygon fill="#F1F1F1" points="689.5,579.48,689.5,593.48,701.5,593.48,701.5,585.48,695.5,579.48,689.5,579.48" style="stroke:#181818;stroke-width:0.5;"/><line style="stroke:#181818;stroke-width:0.5;" x1="695.5" x2="695.5" y1="579.48" y2="585.48"/><line style="stroke:#181818;stroke-width:0.5;" x1="701.5" x2="695.5" y1="585.48" y2="585.48"/><text fill="#000000" font-family="sans-serif" font-size="14" lengthAdjust="spacing" textLength="9" x="677.5" y="600.4751">./</text></g><!--entity d16e6758c18acac1df632b84b748275b--><g id="elem_d16e6758c18acac1df632b84b748275b"><rect fill="#F1F1F1" height="39.2969" rx="2.5" ry="2.5" style="stroke:#181818;stroke-width:0.5;" width="90" x="771" y="574.48"/><polygon fill="#F1F1F1" points="844,579.48,844,593.48,856,593.48,856,585.48,850,579.48,844,579.48" style="stroke:#181818;stroke-width:0.5;"/><line style="stroke:#181818;stroke-width:0.5;" x1="850" x2="850" y1="579.48" y2="585.48"/><line style="stroke:#181818;stroke-width:0.5;" x1="856" x2="850" y1="585.48" y2="585.48"/><text fill="#000000" font-family="sans-serif" font-size="14" lengthAdjust="spacing" textLength="60" x="781" y="600.4751">app-logs</text></g><!--link 54d85d43bc07fe7b60c628efddd8fd92 to 9c41b0dc0d9393d8a4c1a8e0ff9f1547--><g id="link_54d85d43bc07fe7b60c628efddd8fd92_9c41b0dc0d9393d8a4c1a8e0ff9f1547"><path codeLine="30" d="M331.94,141.64 C347.04,171.31 365.13,206.86 373.01,222.34 " fill="none" id="54d85d43bc07fe7b60c628efddd8fd92-9c41b0dc0d9393d8a4c1a8e0ff9f1547" style="stroke:#181818;stroke-width:1.0;"/></g><!--link 9c41b0dc0d9393d8a4c1a8e0ff9f1547 to 66c3ee6bb03b94a4e0d7d152b17c38c7--><g id="link_9c41b0dc0d9393d8a4c1a8e0ff9f1547_66c3ee6bb03b94a4e0d7d152b17c38c7"><path codeLine="31" d="M385.58,240.11 C411.25,263.82 487.27,334.04 512.65,357.47 " fill="none" id="9c41b0dc0d9393d8a4c1a8e0ff9f1547-66c3ee6bb03b94a4e0d7d152b17c38c7" style="stroke:#181818;stroke-width:1.0;"/></g><!--link be37e40b068362ad529067845ac94bd0 to 9882ad60b8ffd8fcaf975b5c38b8d684--><g id="link_be37e40b068362ad529067845ac94bd0_9882ad60b8ffd8fcaf975b5c38b8d684"><path codeLine="32" d="M127,495.78 C127,517.4 127,552.57 127,574.2 " fill="none" id="be37e40b068362ad529067845ac94bd0-9882ad60b8ffd8fcaf975b5c38b8d684" style="stroke:#181818;stroke-width:1.0;"/><text fill="#000000" font-family="sans-serif" font-size="13" lengthAdjust="spacing" textLength="14" x="128" y="540.5469">rw</text></g><!--link 54d85d43bc07fe7b60c628efddd8fd92 to be37e40b068362ad529067845ac94bd0--><g id="link_54d85d43bc07fe7b60c628efddd8fd92_be37e40b068362ad529067845ac94bd0"><path codeLine="33" d="M285.62,141.6 C245.62,225.65 166.018,392.8521 138.668,450.3321 " fill="none" id="54d85d43bc07fe7b60c628efddd8fd92-to-be37e40b068362ad529067845ac94bd0" style="stroke:#181818;stroke-width:1.0;stroke-dasharray:7.0,7.0;"/><polygon fill="#181818" points="136.09,455.75,143.5689,449.3417,138.2383,451.235,136.345,445.9044,136.09,455.75" style="stroke:#181818;stroke-width:1.0;"/><text fill="#000000" font-family="sans-serif" font-size="13" lengthAdjust="spacing" textLength="23" x="215" y="303.2569">use</text></g><!--link e10d74d21315fb34ba2d26d0febc6a3b to c46cf2d148fb50cc0f8e4ccbee11b22e--><g id="link_e10d74d21315fb34ba2d26d0febc6a3b_c46cf2d148fb50cc0f8e4ccbee11b22e"><path codeLine="34" d="M331,495.78 C331,517.4 331,552.57 331,574.2 " fill="none" id="e10d74d21315fb34ba2d26d0febc6a3b-c46cf2d148fb50cc0f8e4ccbee11b22e" style="stroke:#181818;stroke-width:1.0;"/><text fill="#000000" font-family="sans-serif" font-size="13" lengthAdjust="spacing" textLength="14" x="332" y="540.5469">rw</text></g><!--link 54d85d43bc07fe7b60c628efddd8fd92 to e10d74d21315fb34ba2d26d0febc6a3b--><g id="link_54d85d43bc07fe7b60c628efddd8fd92_e10d74d21315fb34ba2d26d0febc6a3b"><path codeLine="35" d="M310.84,141.6 C315.93,225.65 326.0074,392.281 329.4874,449.761 " fill="none" id="54d85d43bc07fe7b60c628efddd8fd92-to-e10d74d21315fb34ba2d26d0febc6a3b" style="stroke:#181818;stroke-width:1.0;stroke-dasharray:7.0,7.0;"/><polygon fill="#181818" points="329.85,455.75,333.2988,446.5247,329.5478,450.7591,325.3134,447.0082,329.85,455.75" style="stroke:#181818;stroke-width:1.0;"/><text fill="#000000" font-family="sans-serif" font-size="13" lengthAdjust="spacing" textLength="23" x="321" y="303.2569">use</text></g><!--link 893aba7f849e8e7e9eba282605c4877b to 3ef9b52d9eb49b7db9d6a3e84fef0d1c--><g id="link_893aba7f849e8e7e9eba282605c4877b_3ef9b52d9eb49b7db9d6a3e84fef0d1c"><path codeLine="36" d="M796.92,141.64 C817.06,171.31 841.18,206.86 851.68,222.34 " fill="none" id="893aba7f849e8e7e9eba282605c4877b-3ef9b52d9eb49b7db9d6a3e84fef0d1c" style="stroke:#181818;stroke-width:1.0;"/></g><!--link 3ef9b52d9eb49b7db9d6a3e84fef0d1c to b73579baee66d879810e7e05d474821f--><g id="link_3ef9b52d9eb49b7db9d6a3e84fef0d1c_b73579baee66d879810e7e05d474821f"><path codeLine="37" d="M865.4,240.11 C890.54,263.82 964.98,334.04 989.82,357.47 " fill="none" id="3ef9b52d9eb49b7db9d6a3e84fef0d1c-b73579baee66d879810e7e05d474821f" style="stroke:#181818;stroke-width:1.0;"/></g><!--link 893adb7f1ae87ab2931fa12476da025c to 4ee4e842a5b02b96710ef6f54e60eaf4--><g id="link_893adb7f1ae87ab2931fa12476da025c_4ee4e842a5b02b96710ef6f54e60eaf4"><path codeLine="38" d="M687,495.78 C687,517.4 687,552.57 687,574.2 " fill="none" id="893adb7f1ae87ab2931fa12476da025c-4ee4e842a5b02b96710ef6f54e60eaf4" style="stroke:#181818;stroke-width:1.0;"/><text fill="#000000" font-family="sans-serif" font-size="13" lengthAdjust="spacing" textLength="14" x="688" y="540.5469">rw</text></g><!--link 893aba7f849e8e7e9eba282605c4877b to 893adb7f1ae87ab2931fa12476da025c--><g id="link_893aba7f849e8e7e9eba282605c4877b_893adb7f1ae87ab2931fa12476da025c"><path codeLine="39" d="M755.36,141.6 C738.12,225.65 703.9156,392.3924 692.1256,449.8724 " fill="none" id="893aba7f849e8e7e9eba282605c4877b-to-893adb7f1ae87ab2931fa12476da025c" style="stroke:#181818;stroke-width:1.0;stroke-dasharray:7.0,7.0;"/><polygon fill="#181818" points="690.92,455.75,696.6468,447.7373,691.9247,450.852,688.81,446.1298,690.92,455.75" style="stroke:#181818;stroke-width:1.0;"/><text fill="#000000" font-family="sans-serif" font-size="13" lengthAdjust="spacing" textLength="23" x="725" y="303.2569">use</text></g><!--link 19891d9c6fb0928acfe714268b3e5be3 to d16e6758c18acac1df632b84b748275b--><g id="link_19891d9c6fb0928acfe714268b3e5be3_d16e6758c18acac1df632b84b748275b"><path codeLine="40" d="M816,495.78 C816,517.4 816,552.57 816,574.2 " fill="none" id="19891d9c6fb0928acfe714268b3e5be3-d16e6758c18acac1df632b84b748275b" style="stroke:#181818;stroke-width:1.0;"/><text fill="#000000" font-family="sans-serif" font-size="13" lengthAdjust="spacing" textLength="14" x="817" y="540.5469">rw</text></g><!--link 893aba7f849e8e7e9eba282605c4877b to 19891d9c6fb0928acfe714268b3e5be3--><g id="link_893aba7f849e8e7e9eba282605c4877b_19891d9c6fb0928acfe714268b3e5be3"><path codeLine="41" d="M771.3,141.6 C782.58,225.65 804.9323,392.3233 812.6423,449.8033 " fill="none" id="893aba7f849e8e7e9eba282605c4877b-to-19891d9c6fb0928acfe714268b3e5be3" style="stroke:#181818;stroke-width:1.0;stroke-dasharray:7.0,7.0;"/><polygon fill="#181818" points="813.44,455.75,816.208,446.2981,812.7753,450.7944,808.279,447.3617,813.44,455.75" style="stroke:#181818;stroke-width:1.0;"/><text fill="#000000" font-family="sans-serif" font-size="13" lengthAdjust="spacing" textLength="23" x="794" y="303.2569">use</text></g><!--SRC=[bPHBQnj148Jl-oiMaKDYi3JlwV4XO4Wmv12RsBSGpFHZZ42lI78SCFxl6QtaH4u2WuyBMrtLttPjdisM3_Ffp-dYhbiiMVhHrNAplLlBPjJdJI-G7GHlmMinG26nyYfu1GLDBEJxnwwdvNorNCXYstl7uDbP91MBH0oAWW4fp0o5a-c_TYSdZ2SdNJUTvpivwrS7ixDPtifcstNVkhVl-f5trWp-YPn6nQGusMIvfY6TGLGfgMZlOfVNssd9jEr7anzvFPbDSV8yy_jimdcRXpaeDefJg0BOO39xarI8u7ocv93LFtEMTuCOyqRs8BJYwDXegtr1wp0RDe5L4QIGBNPF1tpdgzKWO9DzPD8CO4lL5Kp9wv0IbwY9uajoa6prYWLS4f0eIQe1cA0yEOWH1t9vjJf2bucMzuljxJmlwlFwBuAWb1foM2a9lU4wqIMCZ8bhNW5Nf2ZMTBmvrGqcWsgNXp4MdGLYHfEiBbaR5mDdPJpzZrS-RAuJ9Cs9Ga6L36Igfw2T2O1MVFqG5TKkuPl7gylhcuil7wzlhow_t3mDsX38YWH4PJ6vxAHIP-qDwaWMA1wK7pwTVxwuFD9Xj3ucp5KR6682hIf5LOynEgZmZ_8odlu-YmHGZo4eX5BgYL8kANhqrGg10xYNihhalXNa0XN3sjKQU4Ma2eWZGX6jqHWvaettF9s8gyphJQ0oc4Ai-KeetabGaiknKSNunubra10zaAuSSxsc4gn1SBXRgqRjcfKxvTDsYrel35EQtwPLidsM1lB-h1-j7qRjnSPZ7e_VDvkzctTVIzor6ZoaQttPrwPhcZwdQ_u0TkcQNMwzC4nfTgLL_c5AwwAVIJKNEv1gcZwJQlrUXdIjthmsNTFqaEuN]--></g></svg>